# File created by Blade
# Date/Time:  Tue Apr 07 20:35:32 2015
# Frame Rate: 120.000 fps
#------------------------------------------------------
:FULLY-SPECIFIED
:DEGREES
1312
root 1.065221 33.688631 -3.689830 49.951647 -11.318614 -18.285639
Spine -24.248811 11.880355 0.049941
Head -14.661075 -0.939497 5.578379
LeftShoulder -23.259920 40.188581 16.696932
LeftArm 58.883968 -52.843715 -80.922541
LeftForeArm 4.545107 -0.000000 4.182025
LeftHand 11.792097 -0.000000 12.894736
LeftHandThumb1 -26.253704 0.000000 33.147579
RightShoulder -4.844980 6.862547 -26.877607
RightArm 8.340240 17.339598 58.941742
RightForeArm -10.455071 -0.000000 7.575403
RightHand 10.392680 -0.000000 -10.067085
RightHandThumb1 -24.326973 -0.000000 -32.862282
LeftUpLeg -45.379062 0.880112 16.041306
LeftLeg 4.019785 -0.000000 -0.000000
LeftFoot -3.980479 22.549046 -3.038742
LeftToeBase -13.492900 -0.000000 0.000000
RightUpLeg 10.594513 -6.998141 -10.480241
RightLeg 17.534314 -0.000000 -0.000000
RightFoot 41.794872 -11.851980 -5.535463
RightToeBase 30.871665 -0.000000 -0.000000
1313
root 1.082475 33.686170 -3.672575 50.019443 -11.511544 -18.248194
Spine -24.296624 11.968847 0.006034
Head -14.666061 -0.849405 5.629424
LeftShoulder -23.347025 40.175429 16.724952
LeftArm 58.971960 -53.209915 -81.001219
LeftForeArm 4.441253 -0.000000 4.130567
LeftHand 11.927220 -0.000000 13.049170
LeftHandThumb1 -26.253704 0.000000 33.147579
RightShoulder -4.846030 6.943240 -26.835362
RightArm 8.245173 17.389789 58.960881
RightForeArm -10.683703 -0.000000 7.685220
RightHand 10.610260 -0.000000 -10.522017
RightHandThumb1 -24.326973 -0.000000 -32.862282
LeftUpLeg -45.438831 0.840552 15.975190
LeftLeg 4.122824 -0.000000 -0.000000
LeftFoot -4.022726 22.602393 -3.013820
LeftToeBase -13.534494 -0.000000 0.000000
RightUpLeg 10.445293 -7.151607 -10.433159
RightLeg 17.156309 -0.000000 -0.000000
RightFoot 41.812999 -11.600764 -5.557855
RightToeBase 30.879280 -0.000000 -0.000000
1314
root 1.099071 33.685865 -3.656046 50.124301 -11.680373 -18.252213
Spine -24.373896 12.073177 0.002488
Head -14.692416 -0.728613 5.670692
LeftShoulder -23.402538 40.131772 16.786047
LeftArm 58.866235 -53.523942 -80.877219
LeftForeArm 4.384285 -0.000000 4.120351
LeftHand 11.749990 0.000000 13.373307
LeftHandThumb1 -26.253704 0.000000 33.147579
RightShoulder -4.851903 6.880431 -26.807032
RightArm 8.246580 17.281788 58.988680
RightForeArm -10.773346 -0.000000 7.821778
RightHand 10.838065 -0.000000 -10.621395
RightHandThumb1 -24.326973 -0.000000 -32.862282
LeftUpLeg -45.523341 0.788912 15.999060
LeftLeg 4.217009 -0.000000 -0.000000
LeftFoot -4.041459 22.680763 -3.018804
LeftToeBase -13.737664 -0.000000 0.000000
RightUpLeg 10.259908 -7.243317 -10.304219
RightLeg 16.754744 -0.000000 -0.000000
RightFoot 41.925612 -11.414419 -5.536433
RightToeBase 30.892739 -0.000000 -0.000000
1315
root 1.112314 33.684458 -3.640621 50.224244 -11.860700 -18.269264
Spine -24.436278 12.176299 -0.010986
Head -14.744794 -0.600509 5.749834
LeftShoulder -23.472907 40.076923 16.845850
LeftArm 58.807923 -53.876111 -80.768779
LeftForeArm 4.377415 -0.000000 4.074143
LeftHand 11.709570 -0.000000 13.749919
LeftHandThumb1 -26.253704 0.000000 33.147579
RightShoulder -4.867672 6.840572 -26.761142
RightArm 8.296316 17.356667 59.038467
RightForeArm -10.971885 -0.000000 7.874862
RightHand 10.701620 -0.000000 -10.862642
RightHandThumb1 -24.326973 -0.000000 -32.862282
LeftUpLeg -45.597616 0.749653 16.022708
LeftLeg 4.311946 -0.000000 -0.000000
LeftFoot -4.077627 22.820313 -2.925884
LeftToeBase -13.582135 -0.000000 0.000000
RightUpLeg 10.078288 -7.358919 -10.178546
RightLeg 16.374089 -0.000000 -0.000000
RightFoot 42.012350 -11.203116 -5.524480
RightToeBase 30.947236 -0.000000 -0.000000
1316
root 1.124368 33.682556 -3.626748 50.332327 -11.994523 -18.291291
Spine -24.507884 12.280450 -0.001011
Head -14.817600 -0.517218 5.852775
LeftShoulder -23.525277 40.060770 16.907266
LeftArm 58.838040 -54.227938 -80.702278
LeftForeArm 4.312415 -0.000000 4.039126
LeftHand 11.730765 -0.000000 13.756274
LeftHandThumb1 -26.253704 0.000000 33.147579
RightShoulder -4.891918 6.866783 -26.762879
RightArm 8.262171 17.338397 59.075633
RightForeArm -11.182925 -0.000000 7.867591
RightHand 10.797990 -0.000000 -11.179768
RightHandThumb1 -24.326973 -0.000000 -32.862282
LeftUpLeg -45.696524 0.657907 16.112096
LeftLeg 4.424429 -0.000000 -0.000000
LeftFoot -4.114586 22.943411 -2.951051
LeftToeBase -13.800038 -0.000000 0.000000
RightUpLeg 9.896923 -7.507861 -10.014198
RightLeg 15.975579 -0.000000 -0.000000
RightFoot 42.107765 -11.086615 -5.447129
RightToeBase 30.839148 -0.000000 -0.000000
